<svg width="229" height="229" viewBox="0 0 229 229" fill="none" xmlns="http://www.w3.org/2000/svg">
<rect width="229" height="229" fill="#50626C"/>
<path d="M96.4005 89.0038C66.389 104.856 64.5265 143.65 92.8133 162.64L93.6494 161.394L92.8133 162.64C111.532 175.206 136.839 168.812 150.315 148.539C161.651 131.487 157.102 111.801 145.383 98.8609C133.664 85.9206 114.513 79.4362 96.4005 89.0038ZM96.4005 89.0038L97.1011 90.3301L96.4005 89.0038C96.4005 89.0038 96.4005 89.0038 96.4005 89.0038ZM91.0068 66.582C91.0068 56.3387 93.2315 55.425 115.89 56.3594C136.074 57.1933 136.642 57.4299 137.548 65.3489M50.8748 89.7446C47.9086 97.5099 52.1961 103.051 61.1742 103.051C70.779 103.051 75.4637 95.8687 70.0992 89.3691M149.065 147.709C170.815 114.995 131.854 71.9727 97.1011 90.3301M113.315 162.193C144.893 162.193 161.192 127.219 140.294 104.305C130.121 93.1482 113.221 88.6357 101.306 93.8934C88.1054 99.7188 80.7075 111.671 80.7075 127.172M105.208 150.151C117.991 155.471 129.376 150.985 136.527 137.809M137.486 116.938C131.695 104.737 120.327 99.9081 106.247 103.672M136.058 65.5194L136.058 65.5198L136.799 71.9808H114.742C109.01 71.9808 104.694 71.9654 101.429 71.84C98.1353 71.7135 96.0472 71.4774 94.7048 71.0871C93.4326 70.7173 93.0571 70.2801 92.8603 69.8472C92.5819 69.2349 92.5068 68.3102 92.5068 66.582C92.5068 64.0192 92.6555 62.2876 93.1143 61.0552C93.5244 59.9532 94.1965 59.2108 95.5215 58.6665C96.9555 58.0774 99.1324 57.7343 102.493 57.6212C105.826 57.509 110.162 57.6244 115.828 57.8581C120.884 58.067 124.665 58.2369 127.526 58.4961C130.416 58.7578 132.21 59.1 133.373 59.5826C134.429 60.0209 134.912 60.5499 135.243 61.3153C135.635 62.2228 135.825 63.4884 136.058 65.5194ZM138.481 74.9808H140.163L139.971 73.3098L139.038 65.1783C138.817 63.2498 138.597 61.5163 137.997 60.1261C137.335 58.5939 136.245 57.5268 134.523 56.8118C132.907 56.1412 130.718 55.7729 127.797 55.5083C124.847 55.2411 120.987 55.0687 115.952 54.8607L115.952 54.8607C110.289 54.6271 105.85 54.5064 102.392 54.6229C98.9636 54.7383 96.3359 55.0887 94.3815 55.8916C92.3179 56.7393 91.0177 58.0876 90.3027 60.0087C89.6362 61.7993 89.5068 64.0231 89.5068 66.582C89.5068 68.182 89.5359 69.7836 90.1293 71.0889C90.8044 72.5736 92.0685 73.445 93.8674 73.9679C95.5959 74.4703 98.0103 74.7109 101.314 74.8378C104.647 74.9659 109.024 74.9808 114.742 74.9808H138.481ZM52.2761 90.2799L52.2763 90.2793C52.6228 89.3711 53.4467 88.5561 54.7733 87.9409C56.0952 87.3279 57.7975 86.9751 59.6303 86.9392C63.3734 86.8659 67.1093 88.1045 68.9427 90.3243C71.2846 93.162 71.274 95.8654 69.9938 97.8281C68.6509 99.887 65.6392 101.551 61.1742 101.551C56.9593 101.551 54.172 100.253 52.7317 98.3919C51.3199 96.5677 50.9194 93.8315 52.2761 90.2799ZM71.2561 88.4143L71.2557 88.4139C68.6075 85.2075 63.7906 83.8572 59.5715 83.9398C57.4233 83.9819 55.2922 84.3934 53.5112 85.2193C51.7349 86.043 50.1862 87.3415 49.4734 89.2099C47.8641 93.4234 48.1244 97.3403 50.3592 100.228C52.5655 103.079 56.4109 104.551 61.1742 104.551C66.3139 104.551 70.4471 102.624 72.5065 99.4671C74.6287 96.2136 74.2783 92.076 71.2561 88.4143ZM97.8017 91.6565L97.8017 91.6565C114.442 82.8667 132.147 88.7147 143.16 100.875C154.172 113.035 158.229 131.216 147.816 146.878L147.816 146.879C135.114 165.988 111.614 171.647 94.4854 160.149C68.0564 142.406 69.8252 106.434 97.8017 91.6565ZM139.185 105.316L139.185 105.316C159.138 127.193 143.691 160.693 113.315 160.693C109.494 160.693 106.383 160.098 103.247 158.63C100.078 157.146 96.8034 154.733 92.7144 150.967C87.7544 146.398 85.2393 143.687 83.8696 140.585C82.5012 137.485 82.2075 133.839 82.2075 127.172C82.2075 112.209 89.3047 100.829 101.912 95.2657C113.122 90.319 129.355 94.5352 139.185 105.316ZM90.6821 153.174L90.6822 153.174C94.865 157.026 98.4017 159.674 101.974 161.347C105.58 163.035 109.141 163.693 113.315 163.693C146.094 163.693 163.247 127.246 141.402 103.294C130.886 91.7612 113.32 86.9525 100.701 92.5211L101.306 93.8934L100.701 92.5211C86.906 98.6085 79.2075 111.134 79.2075 127.172C79.2075 133.791 79.4685 138.044 81.1251 141.796C82.7805 145.546 85.7608 148.641 90.6821 153.174ZM105.859 102.223L105.859 102.223C94.5031 105.26 88.7298 115.416 88.4986 125.748C88.2675 136.078 93.5518 146.924 104.632 151.536L104.632 151.536C111.318 154.319 117.768 154.582 123.529 152.312C129.275 150.048 134.147 145.338 137.845 138.524C140.54 133.563 142.135 130.433 142.28 127.271C142.426 124.079 141.091 121.035 138.841 116.295L138.841 116.295C135.81 109.908 131.269 105.361 125.561 102.937C119.865 100.518 113.15 100.274 105.859 102.223ZM135.209 137.093L135.208 137.093C131.756 143.456 127.36 147.578 122.43 149.521C117.515 151.458 111.881 151.304 105.784 148.767C96.0509 144.715 91.289 135.147 91.4978 125.816C91.7066 116.487 96.8593 107.736 106.634 105.121C113.424 103.306 119.433 103.594 124.389 105.699C129.333 107.798 133.371 111.766 136.131 117.581C138.46 122.49 139.389 124.829 139.283 127.134C139.176 129.469 138.002 131.95 135.209 137.093ZM183.228 83.8908C183.43 83.9664 183.523 84.0187 183.55 84.0334C183.647 84.1463 183.821 84.4119 184.027 84.9412C184.248 85.5067 184.469 86.2738 184.681 87.2684C185.105 89.2569 185.465 92.0159 185.754 95.6005C186.332 102.762 186.615 113.051 186.615 126.708C186.615 140.364 186.332 150.654 185.754 157.815C185.465 161.4 185.105 164.159 184.681 166.147C184.469 167.142 184.248 167.909 184.027 168.475C183.821 169.004 183.647 169.27 183.55 169.382C183.523 169.397 183.43 169.449 183.228 169.525C182.925 169.639 182.491 169.764 181.912 169.893C180.757 170.152 179.16 170.4 177.158 170.634C173.163 171.1 167.691 171.491 161.216 171.805C148.273 172.433 131.416 172.747 114.548 172.747C97.6798 172.747 80.823 172.433 67.8801 171.805C61.4049 171.491 55.9333 171.1 51.9378 170.634C49.9361 170.4 48.3388 170.152 47.1841 169.893C46.6051 169.764 46.1712 169.639 45.8679 169.525C45.6845 169.456 45.5911 169.407 45.5555 169.387C45.5292 169.351 45.4792 169.274 45.4122 169.138C45.3113 168.933 45.1982 168.649 45.0785 168.274C44.8385 167.523 44.6029 166.506 44.3784 165.236C43.9305 162.701 43.5513 159.299 43.2459 155.294C42.6358 147.292 42.3294 137.008 42.3294 126.708C42.3294 116.407 42.6358 106.124 43.2459 98.1219C43.5513 94.1168 43.9305 90.715 44.3784 88.18C44.6029 86.9099 44.8385 85.8932 45.0785 85.1418C45.1982 84.7667 45.3113 84.4826 45.4122 84.278C45.4792 84.142 45.5292 84.0652 45.5555 84.0285C45.591 84.009 45.6845 83.9595 45.8679 83.8908C46.1712 83.777 46.6051 83.6521 47.1841 83.5224C48.3388 83.2638 49.9361 83.0154 51.9378 82.7819C55.9333 82.3158 61.4049 81.9246 67.8801 81.6106C80.823 80.9831 97.6798 80.6687 114.548 80.6687C131.416 80.6687 148.273 80.9831 161.216 81.6106C167.691 81.9246 173.163 82.3158 177.158 82.7819C179.16 83.0154 180.757 83.2638 181.912 83.5224C182.491 83.6521 182.925 83.777 183.228 83.8908ZM189.615 126.708C189.615 113.029 189.332 102.643 188.745 95.3592C188.451 91.7211 188.078 88.8152 187.615 86.6428C187.384 85.5568 187.122 84.6195 186.822 83.8499C186.53 83.1026 186.158 82.3993 185.647 81.8853C185.253 81.4902 184.721 81.2465 184.282 81.0818C183.799 80.9007 183.218 80.7405 182.568 80.595C181.265 80.3031 179.549 80.0404 177.506 79.8021C173.411 79.3244 167.861 78.9293 161.361 78.6141C148.354 77.9835 131.445 77.6687 114.548 77.6687C97.6508 77.6687 80.7422 77.9835 67.7348 78.6141C61.235 78.9293 55.6853 79.3244 51.5903 79.8021C49.5468 80.0404 47.8314 80.3031 46.5284 80.595C45.8785 80.7405 45.2972 80.9007 44.8143 81.0818C44.3753 81.2465 43.8428 81.4902 43.4496 81.8853C42.8705 82.4673 42.4966 83.3649 42.2206 84.2292C41.9234 85.16 41.6602 86.3225 41.4242 87.6579C40.9513 90.3338 40.5631 93.8473 40.2546 97.8938C39.6369 105.995 39.3294 116.36 39.3294 126.708C39.3294 137.056 39.6369 147.42 40.2546 155.522C40.5631 159.568 40.9513 163.082 41.4242 165.758C41.6602 167.093 41.9234 168.256 42.2206 169.187C42.4966 170.051 42.8705 170.949 43.4496 171.53C43.8428 171.926 44.3753 172.169 44.8143 172.334C45.2972 172.515 45.8785 172.675 46.5284 172.821C47.8314 173.113 49.5468 173.375 51.5903 173.614C55.6853 174.091 61.235 174.487 67.7348 174.802C80.7422 175.432 97.6508 175.747 114.548 175.747C131.445 175.747 148.354 175.432 161.361 174.802C167.861 174.487 173.411 174.091 177.506 173.614C179.549 173.375 181.265 173.113 182.568 172.821C183.218 172.675 183.799 172.515 184.282 172.334C184.721 172.169 185.253 171.926 185.647 171.53C186.158 171.017 186.53 170.313 186.822 169.566C187.122 168.796 187.384 167.859 187.615 166.773C188.078 164.601 188.451 161.695 188.745 158.057C189.332 150.773 189.615 140.386 189.615 126.708ZM65.0633 93.4321C65.8335 93.8191 65.9463 94.1306 65.9628 94.1802C65.9463 94.2299 65.8335 94.5413 65.0633 94.9283C64.2449 95.3395 63.0133 95.6373 61.5802 95.6373C60.1472 95.6373 58.9156 95.3395 58.0972 94.9283C57.3269 94.5413 57.2142 94.2299 57.1977 94.1802C57.2142 94.1306 57.3269 93.8191 58.0972 93.4321C58.9156 93.0209 60.1472 92.7232 61.5802 92.7232C63.0133 92.7232 64.2449 93.0209 65.0633 93.4321ZM61.5802 98.6373C63.3841 98.6373 65.0952 98.2697 66.4102 97.609C67.6335 96.9944 68.9656 95.8676 68.9656 94.1802C68.9656 92.4928 67.6335 91.3661 66.4102 90.7515C65.0952 90.0907 63.3841 89.7232 61.5802 89.7232C59.7764 89.7232 58.0653 90.0907 56.7503 90.7515C55.527 91.3661 54.1949 92.4928 54.1949 94.1802C54.1949 95.8676 55.527 96.9944 56.7503 97.609C58.0653 98.2697 59.7764 98.6373 61.5802 98.6373ZM126.859 114.326C128.734 116.21 130.456 118.599 131.703 120.92C132.977 123.29 133.647 125.384 133.647 126.708C133.647 128.338 132.987 130.366 131.739 132.569C130.505 134.748 128.762 136.981 126.761 138.991C124.761 141.002 122.539 142.753 120.371 143.993C118.18 145.246 116.165 145.907 114.548 145.907C112.931 145.907 110.916 145.246 108.725 143.993C106.557 142.753 104.335 141.002 102.335 138.991C100.334 136.981 98.591 134.748 97.3568 132.569C96.1093 130.366 95.4495 128.338 95.4495 126.708C95.4495 125.077 96.1093 123.05 97.3568 120.847C98.591 118.668 100.334 116.435 102.335 114.424C104.335 112.414 106.557 110.663 108.725 109.423C110.916 108.17 112.931 107.508 114.548 107.508C115.86 107.508 117.941 108.179 120.299 109.46C122.607 110.713 124.985 112.443 126.859 114.326ZM136.647 126.708C136.647 124.631 135.69 122.001 134.346 119.5C132.974 116.949 131.084 114.319 128.986 112.21C126.887 110.101 124.27 108.202 121.73 106.823C119.241 105.471 116.621 104.508 114.548 104.508C112.196 104.508 109.651 105.437 107.235 106.819C104.797 108.214 102.365 110.141 100.208 112.308C98.0517 114.476 96.1339 116.919 94.7464 119.369C93.3721 121.795 92.4495 124.349 92.4495 126.708C92.4495 129.067 93.3721 131.621 94.7464 134.047C96.1339 136.497 98.0517 138.94 100.208 141.107C102.365 143.275 104.797 145.202 107.235 146.597C109.651 147.978 112.196 148.907 114.548 148.907C116.901 148.907 119.446 147.978 121.861 146.597C124.3 145.202 126.731 143.275 128.888 141.107C131.045 138.94 132.962 136.497 134.35 134.047C135.724 131.621 136.647 129.067 136.647 126.708ZM91.0286 54.3127L91.0287 54.3126C91.6781 53.9326 92.774 53.5394 94.3183 53.1768C95.8358 52.8205 97.6864 52.5159 99.7762 52.2682C103.954 51.773 109.003 51.5147 114.085 51.5006C119.167 51.4865 124.249 51.7166 128.495 52.1888C132.823 52.6702 136.039 53.381 137.573 54.2058C140.577 55.8219 142.475 59.3977 142.475 64.7131V73.4808V74.9808H143.975H163.102C170.588 74.9808 176.061 75.1108 180.154 76.0695C184.134 77.002 186.665 78.684 188.415 81.7736C190.241 84.9965 191.298 89.8825 191.865 97.4294C192.43 104.94 192.5 114.861 192.5 128.018C192.5 148.47 192.423 159.064 191.586 165.115C191.172 168.113 190.589 169.828 189.843 171.027C189.104 172.213 188.127 173.027 186.595 174.104L186.595 174.105C184.257 175.751 180.252 176.904 169.5 177.576C158.833 178.244 141.854 178.435 113.892 178.435C108.151 178.435 102.832 178.454 97.9041 178.471C84.5741 178.518 74.0977 178.555 65.8319 178.184C54.4407 177.673 47.6504 176.388 43.4979 173.583C39.5155 170.893 37.7025 166.601 36.9625 159.071C36.4195 153.547 36.4735 146.553 36.5427 137.579C36.5684 134.238 36.5963 130.624 36.5963 126.708C36.5963 113.922 36.6746 104.27 37.2487 96.954C37.8256 89.6032 38.892 84.8377 40.7204 81.6879C42.475 78.6652 45.0108 77.0014 48.9943 76.0736C53.0834 75.1212 58.5436 74.9808 65.9942 74.9808H85.1215H86.6215V73.4808V64.7575C86.6215 62.3552 87.1058 60.0752 87.9213 58.2161C88.7443 56.3396 89.8544 54.9995 91.0286 54.3127Z" stroke="white" stroke-width="3"/>
</svg>
